<mxfile host="app.diagrams.net" modified="2020-12-23T12:04:23.630Z" agent="5.0 (Macintosh; Intel Mac OS X 11_0_1) AppleWebKit/537.36 (KHTML, like Gecko) Chrome/87.0.4280.88 Safari/537.36 Edg/87.0.664.66" etag="RMT8bC_mJmdAoufqfCWU" version="14.1.1" type="github">
  <diagram id="CKwIn7p5SDrEs_i4J2wH" name="第 1 页">
    <mxGraphModel dx="1426" dy="914" grid="0" gridSize="10" guides="1" tooltips="1" connect="1" arrows="1" fold="1" page="1" pageScale="1" pageWidth="827" pageHeight="1169" math="0" shadow="0">
      <root>
        <mxCell id="0" />
        <mxCell id="1" parent="0" />
        <mxCell id="2AOq3ptgM0xFZPOGS680-1" value="" style="rounded=0;whiteSpace=wrap;html=1;fillColor=#d5e8d4;strokeColor=#82b366;" vertex="1" parent="1">
          <mxGeometry x="194" y="463" width="434" height="377" as="geometry" />
        </mxCell>
        <mxCell id="2AOq3ptgM0xFZPOGS680-9" style="edgeStyle=orthogonalEdgeStyle;rounded=0;orthogonalLoop=1;jettySize=auto;html=1;exitX=1;exitY=0.5;exitDx=0;exitDy=0;endArrow=none;endFill=0;" edge="1" parent="1" source="2AOq3ptgM0xFZPOGS680-2" target="2AOq3ptgM0xFZPOGS680-6">
          <mxGeometry relative="1" as="geometry" />
        </mxCell>
        <mxCell id="2AOq3ptgM0xFZPOGS680-2" value="&lt;font style=&quot;font-size: 18px&quot;&gt;NEW FILE&lt;/font&gt;" style="rounded=0;whiteSpace=wrap;html=1;fillColor=#ffe6cc;strokeColor=#d79b00;" vertex="1" parent="1">
          <mxGeometry x="280" y="560" width="120" height="60" as="geometry" />
        </mxCell>
        <mxCell id="2AOq3ptgM0xFZPOGS680-4" value="" style="rounded=0;whiteSpace=wrap;html=1;" vertex="1" parent="1">
          <mxGeometry x="470" y="540" width="140" height="270" as="geometry" />
        </mxCell>
        <mxCell id="2AOq3ptgM0xFZPOGS680-5" value="&lt;font style=&quot;font-size: 18px&quot;&gt;版本数据库&lt;/font&gt;" style="text;html=1;strokeColor=none;fillColor=none;align=center;verticalAlign=middle;whiteSpace=wrap;rounded=0;" vertex="1" parent="1">
          <mxGeometry x="485" y="510" width="110" height="30" as="geometry" />
        </mxCell>
        <mxCell id="2AOq3ptgM0xFZPOGS680-6" value="&lt;font style=&quot;font-size: 18px&quot;&gt;versions3&lt;/font&gt;" style="rounded=0;whiteSpace=wrap;html=1;fillColor=#ffe6cc;strokeColor=#d79b00;" vertex="1" parent="1">
          <mxGeometry x="480" y="560" width="120" height="60" as="geometry" />
        </mxCell>
        <mxCell id="2AOq3ptgM0xFZPOGS680-7" value="&lt;font style=&quot;font-size: 18px&quot;&gt;versions2&lt;/font&gt;" style="rounded=0;whiteSpace=wrap;html=1;fillColor=#ffe6cc;strokeColor=#d79b00;" vertex="1" parent="1">
          <mxGeometry x="480" y="640" width="120" height="60" as="geometry" />
        </mxCell>
        <mxCell id="2AOq3ptgM0xFZPOGS680-8" value="&lt;font style=&quot;font-size: 18px&quot;&gt;versions1&lt;/font&gt;" style="rounded=0;whiteSpace=wrap;html=1;fillColor=#ffe6cc;strokeColor=#d79b00;" vertex="1" parent="1">
          <mxGeometry x="480" y="730" width="120" height="60" as="geometry" />
        </mxCell>
        <mxCell id="2AOq3ptgM0xFZPOGS680-10" value="&lt;font style=&quot;font-size: 36px&quot;&gt;Computer&lt;/font&gt;" style="text;html=1;strokeColor=none;fillColor=none;align=center;verticalAlign=middle;whiteSpace=wrap;rounded=0;" vertex="1" parent="1">
          <mxGeometry x="310" y="463" width="207" height="33" as="geometry" />
        </mxCell>
      </root>
    </mxGraphModel>
  </diagram>
</mxfile>
